<svg xmlns="http://www.w3.org/2000/svg" width="44.766" height="25.948" viewBox="0 0 44.766 25.948">
  <g id="students-cap" transform="translate(0 -166.422)">
    <path id="Path_4025" data-name="Path 4025" d="M173.055,406.426l-13.354-4.11v6.865c0,3.174,5.981,5.747,13.358,5.747s13.359-2.573,13.359-5.747c0-.025-.008-.05-.009-.074v-6.79Z" transform="translate(-150.672 -222.557)" fill="#656565"/>
    <path id="Path_4026" data-name="Path 4026" d="M0,175.033l4.771,1.707.407-.871,1.753-.149.25.26-1.5.357-.219.649s-3.4,7.1-2.9,10.575a4.381,4.381,0,0,0,4.24,0l.563-9.5v-.791l3.155-.712-.223.549-2.352.765,1.088.389,13.354,4.11,13.354-4.11,9.029-3.229-22.383-8.611Z" fill="#656565"/>
  </g>
</svg>
