<svg xmlns="http://www.w3.org/2000/svg" width="21.736" height="39" viewBox="0 0 21.736 39">
  <g id="electrician" transform="translate(-113.738)">
    <circle id="Ellipse_1" data-name="Ellipse 1" cx="3.446" cy="3.446" r="3.446" transform="translate(123.432 0)" fill="#fff"/>
    <path id="Path_4020" data-name="Path 4020" d="M226.252,433.479H223.2l.013,4.129a1.846,1.846,0,0,0,1.845,1.84h.006a1.846,1.846,0,0,0,1.84-1.851l-.013-4.262A1.472,1.472,0,0,1,226.252,433.479Z" transform="translate(-101.15 -400.448)" fill="#fff"/>
    <path id="Path_4021" data-name="Path 4021" d="M134.732,114.9l-4.416-2.751v-5.083a2.16,2.16,0,0,0-2.159-2.166h-3.966a2.166,2.166,0,0,0-2.166,2.166v.419l.584-.427-2.562,3.031a1.578,1.578,0,0,0-.318.606l-1.556,5.748a1.578,1.578,0,1,0,3.046.825l1.465-5.409,2.336-2.763-1.313,2.677-1.556,5.748a2.531,2.531,0,0,1-.886,1.337v1.231h-3.115V118.87a2.551,2.551,0,0,1-.853-1.18,1.268,1.268,0,0,0-.437.957v1.438H114.31a.572.572,0,0,0-.572.572v7.826a.572.572,0,0,0,.572.572H125.1a.572.572,0,0,0,.572-.572v-7.826a.572.572,0,0,0-.572-.572h-2.548v-.911l3.239-.007a.809.809,0,0,1,.811.809v14.072a1.856,1.856,0,1,0,3.711.041V115.866l2.745,1.709a1.578,1.578,0,0,0,1.67-2.677Zm-13.639,9.756-1.993,2.628a.1.1,0,0,1-.185-.08l.314-1.878a.1.1,0,0,0-.1-.121h-.665a.1.1,0,0,1-.1-.114l.279-2.924a.1.1,0,0,1,.1-.094h2.181a.1.1,0,0,1,.1.131l-.591,2.153a.1.1,0,0,0,.1.131h.48a.1.1,0,0,1,.083.167Z" transform="translate(0 -96.936)" fill="#fff"/>
  </g>
</svg>
