<svg xmlns="http://www.w3.org/2000/svg" width="46.285" height="46.285" viewBox="0 0 46.285 46.285">
  <path id="date" d="M40.861,3.616h-2.17V0H35.075V3.616H11.21V0H7.594V3.616H5.424A5.43,5.43,0,0,0,0,9.04V40.861a5.43,5.43,0,0,0,5.424,5.424H40.861a5.43,5.43,0,0,0,5.424-5.424V9.04A5.43,5.43,0,0,0,40.861,3.616ZM5.424,7.232h2.17v3.616H11.21V7.232H35.075v3.616h3.616V7.232h2.17A1.81,1.81,0,0,1,42.669,9.04v4.339H3.616V9.04A1.81,1.81,0,0,1,5.424,7.232ZM40.861,42.669H5.424a1.81,1.81,0,0,1-1.808-1.808V17H42.669V40.861A1.81,1.81,0,0,1,40.861,42.669ZM6.87,20.792h3.616v3.616H6.87Zm7.232,0h3.616v3.616H14.1Zm7.232,0h3.616v3.616H21.335Zm10.848,3.616H28.567V20.792h3.616Zm7.232,0H35.8V20.792h3.616ZM6.87,28.024h3.616V31.64H6.87Zm7.232,0h3.616V31.64H14.1Zm7.232,0h3.616V31.64H21.335ZM6.87,35.256h3.616v3.616H6.87Zm7.232,0h3.616v3.616H14.1Zm7.232,0h3.616v3.616H21.335Zm18.623-3.169-2.983,2.85.7,4.025-3.687-1.9-3.687,1.9.7-4.025-2.983-2.85,4.123-.587,1.844-3.662L35.834,31.5Zm0,0" fill="#0071bb"/>
</svg>
