<svg id="euro" xmlns="http://www.w3.org/2000/svg" width="46.285" height="46.285" viewBox="0 0 46.285 46.285">
  <path id="Path_4029" data-name="Path 4029" d="M23.143,0A23.143,23.143,0,1,0,46.285,23.143,23.193,23.193,0,0,0,23.143,0Zm0,43.573A20.431,20.431,0,1,1,43.573,23.143,20.454,20.454,0,0,1,23.143,43.573Zm0,0" fill="#0071bb"/>
  <path id="Path_4030" data-name="Path 4030" d="M78.628,61A17.628,17.628,0,1,0,96.256,78.628,17.648,17.648,0,0,0,78.628,61Zm0,32.544A14.916,14.916,0,1,1,93.544,78.628,14.933,14.933,0,0,1,78.628,93.544Zm0,0" transform="translate(-55.486 -55.486)" fill="#0071bb"/>
  <path id="Path_4031" data-name="Path 4031" d="M148.2,138.712a6.539,6.539,0,0,1,5.514,3.408l2.328-1.392A9.22,9.22,0,0,0,148.2,136a8.881,8.881,0,0,0-6.783,3.254,11.069,11.069,0,0,0-2.023,3.526H136v2.712h2.785a12.553,12.553,0,0,0,0,2.712H136v2.712h3.4a11.073,11.073,0,0,0,2.023,3.526A8.881,8.881,0,0,0,148.2,157.7a9.22,9.22,0,0,0,7.842-4.728l-2.328-1.392a6.539,6.539,0,0,1-5.514,3.408,6.213,6.213,0,0,1-4.723-2.307,8.169,8.169,0,0,1-1.147-1.761h7.226V148.2h-8.041a9.725,9.725,0,0,1,0-2.712h8.041V142.78h-7.226a8.17,8.17,0,0,1,1.147-1.761A6.213,6.213,0,0,1,148.2,138.712Zm0,0" transform="translate(-123.706 -123.706)" fill="#0071bb"/>
</svg>
