<svg xmlns="http://www.w3.org/2000/svg" width="17" height="10.957" viewBox="0 0 17 10.957">
  <g id="mail" transform="translate(0 -91)">
    <g id="Group_44" data-name="Group 44" transform="translate(0 91.695)">
      <g id="Group_43" data-name="Group 43">
        <path id="Path_4022" data-name="Path 4022" d="M16.764,111.933,8.8,118.111a.5.5,0,0,1-.6,0L.236,111.933a1.481,1.481,0,0,0-.236.8V120.7a1.5,1.5,0,0,0,1.494,1.494H15.506A1.5,1.5,0,0,0,17,120.7v-7.969A1.481,1.481,0,0,0,16.764,111.933Z" transform="translate(0 -111.933)" fill="#acacac"/>
      </g>
    </g>
    <g id="Group_46" data-name="Group 46" transform="translate(1.056 91)">
      <g id="Group_45" data-name="Group 45">
        <path id="Path_4023" data-name="Path 4023" d="M46.265,91H32.254a1.473,1.473,0,0,0-.438.073l7.444,5.779L46.7,91.073A1.473,1.473,0,0,0,46.265,91Z" transform="translate(-31.816 -91)" fill="#acacac"/>
      </g>
    </g>
  </g>
</svg>
