<svg id="duration" xmlns="http://www.w3.org/2000/svg" width="50.469" height="50.469" viewBox="0 0 50.469 50.469">
  <path id="Path_4040" data-name="Path 4040" d="M0,38.013Z" transform="translate(24.709 -24.344)" fill="#0071bb"/>
  <path id="Path_4033" data-name="Path 4033" d="M24.669,27.337A13.669,13.669,0,1,1,38.337,13.669,13.684,13.684,0,0,1,24.669,27.337Zm0-24.183A10.514,10.514,0,1,0,35.183,13.669,10.526,10.526,0,0,0,24.669,3.154Z" transform="translate(12.132)" fill="#0071bb"/>
  <path id="Path_4034" data-name="Path 4034" d="M22.007,16.669a1.565,1.565,0,0,1-1.115-.463l-3.68-3.68a1.57,1.57,0,0,1-.463-1.115V4.577a1.577,1.577,0,0,1,3.154,0v6.18l3.217,3.217a1.578,1.578,0,0,1-1.115,2.694Z" transform="translate(18.473 3.309)" fill="#0071bb"/>
  <path id="Path_4035" data-name="Path 4035" d="M3.577,31.914A1.578,1.578,0,0,1,2,30.337V8.783A5.788,5.788,0,0,1,7.783,3h15.36a1.577,1.577,0,1,1,0,3.154H7.783A2.632,2.632,0,0,0,5.154,8.783V30.337A1.578,1.578,0,0,1,3.577,31.914Z" transform="translate(2.206 3.309)" fill="#0071bb"/>
  <path id="Path_4036" data-name="Path 4036" d="M7.077,33.1a1.579,1.579,0,0,1-1.459-2.174L11.4,16.732a1.577,1.577,0,1,1,2.921,1.192L8.539,32.118a1.58,1.58,0,0,1-1.461.982Z" transform="translate(6.066 17.368)" fill="#0071bb"/>
  <path id="Path_4037" data-name="Path 4037" d="M20.611,33.1a1.576,1.576,0,0,1-1.461-.982L13.367,17.924a1.577,1.577,0,1,1,2.921-1.192L22.07,30.926A1.579,1.579,0,0,1,20.611,33.1Z" transform="translate(14.612 17.368)" fill="#0071bb"/>
  <path id="Path_4038" data-name="Path 4038" d="M12.327,28.893a1.578,1.578,0,0,1-1.577-1.577V17.327a1.577,1.577,0,0,1,3.154,0v9.989A1.578,1.578,0,0,1,12.327,28.893Z" transform="translate(11.856 17.37)" fill="#0071bb"/>
  <path id="Path_4041" data-name="Path 4041" d="M12.327,28.1a1.532,1.532,0,0,1-1.577-1.481V17.231a1.58,1.58,0,0,1,3.154,0v9.382A1.532,1.532,0,0,1,12.327,28.1Z" transform="translate(30.856 7.168)" fill="#0071bb"/>
  <path id="Path_4039" data-name="Path 4039" d="M46.789,18.654H1.577a1.577,1.577,0,0,1,0-3.154H46.789a1.577,1.577,0,0,1,0,3.154Z" transform="translate(0 17.094)" fill="#0071bb"/>
</svg>
