<svg xmlns="http://www.w3.org/2000/svg" width="35.288" height="35" viewBox="0 0 35.288 35">
  <g id="XMLID_129_" transform="translate(0 -1.995)">
    <path id="XMLID_134_" d="M217.808,5.656H199.05a1.129,1.129,0,0,0-1.129,1.129v7.967l.816-.954a2.6,2.6,0,0,1,1.442-.85V7.915h16.5V22.663h-16.5V20.194l-.508.594a2.622,2.622,0,0,1-1.749.9v2.1a1.129,1.129,0,0,0,1.129,1.129h6.092l-3.1,14.052a1.168,1.168,0,0,0,2.281.5l3.206-14.555H209.4L212.6,39.476a1.168,1.168,0,1,0,2.281-.5l-3.095-14.052h6.02a1.129,1.129,0,0,0,1.129-1.129V6.785A1.13,1.13,0,0,0,217.808,5.656Z" transform="translate(-183.65 -3.397)" fill="#0071bb"/>
    <path id="XMLID_132_" d="M179.537,93.56a.435.435,0,0,0-.565-.246l-6.651,2.347a1.46,1.46,0,0,0-2,.2l-2.11,2.464-1.871-1.6c.012.132.04.261.04.4v3.482l1.041.892a1.461,1.461,0,0,0,2.059-.158l2.512-2.938,2.026-1.185,5.332-3.12A.435.435,0,0,0,179.537,93.56Z" transform="translate(-154.345 -84.706)" fill="#0071bb"/>
    <path id="XMLID_131_" d="M7.926,105.776H6.673a2.925,2.925,0,0,0-2.34,1.177L.486,110.5a1.459,1.459,0,0,0-.114,2.062l3.139,3.5a1.459,1.459,0,1,0,2.174-1.948L3.521,111.7l3.073-2.75L4.8,111.379l1.751,1.955a2.619,2.619,0,0,1-2.822,4.222s.014,6.753.014,13.986a1.752,1.752,0,1,0,3.5,0V121.1H8.419v10.439a2.9,2.9,0,0,1-.365,1.387,1.731,1.731,0,0,0,1.058.365,1.752,1.752,0,0,0,1.752-1.752c0-7.23,0-4.2,0-22.826A2.939,2.939,0,0,0,7.926,105.776Z" transform="translate(0 -96.298)" fill="#0071bb"/>
    <path id="XMLID_130_" d="M55.73,8.427A3.413,3.413,0,0,0,60.7,5.408,3.414,3.414,0,1,0,55.73,8.427Z" transform="translate(-49.992)" fill="#0071bb"/>
  </g>
</svg>
