<svg id="exam_1_" data-name="exam (1)" xmlns="http://www.w3.org/2000/svg" width="33.424" height="45.923" viewBox="0 0 33.424 45.923">
  <path id="Path_4042" data-name="Path 4042" d="M32.072,0H9.876A1.352,1.352,0,0,0,8.92.4L.4,8.92a1.351,1.351,0,0,0-.4.956V44.571a1.352,1.352,0,0,0,1.352,1.352H32.072a1.352,1.352,0,0,0,1.352-1.352V1.352A1.352,1.352,0,0,0,32.072,0ZM8.523,4.617V8.523H4.618Zm22.2,38.6H2.7V11.228H9.876a1.352,1.352,0,0,0,1.352-1.352V2.7H30.719Zm0,0" fill="#0071bb"/>
  <path id="Path_4043" data-name="Path 4043" d="M80.545,159.66l-4.673,10.187a1.352,1.352,0,1,0,2.459,1.128l1.336-2.912h4.217l1.336,2.912a1.352,1.352,0,1,0,2.459-1.128L83,159.66a1.352,1.352,0,0,0-2.459,0Zm.362,5.7.867-1.891.868,1.891Zm0,0" transform="translate(-68.954 -144.621)" fill="#0071bb"/>
  <path id="Path_4044" data-name="Path 4044" d="M216.665,164.421h.954v.954a1.352,1.352,0,1,0,2.7,0v-.954h.954a1.352,1.352,0,0,0,0-2.7h-.954v-.954a1.352,1.352,0,0,0-2.7,0v.954h-.954a1.352,1.352,0,0,0,0,2.7Zm0,0" transform="translate(-196 -145.112)" fill="#0071bb"/>
  <path id="Path_4045" data-name="Path 4045" d="M94.233,332.539H77.1a1.352,1.352,0,1,0,0,2.7H94.233a1.352,1.352,0,1,0,0-2.7Zm0,0" transform="translate(-68.956 -302.713)" fill="#0071bb"/>
  <path id="Path_4046" data-name="Path 4046" d="M88.4,378.555H77.1a1.352,1.352,0,1,0,0,2.7H88.4a1.352,1.352,0,1,0,0-2.7Zm0,0" transform="translate(-68.956 -344.601)" fill="#0071bb"/>
</svg>
