<svg xmlns="http://www.w3.org/2000/svg" width="14.926" height="14.957" viewBox="0 0 14.926 14.957">
  <g id="phone-call" transform="translate(-0.539)">
    <g id="Group_47" data-name="Group 47" transform="translate(0.539 0)">
      <path id="Path_4024" data-name="Path 4024" d="M15.073,10.977,12.986,8.89a1.388,1.388,0,0,0-2.311.522,1.42,1.42,0,0,1-1.64.895A6.437,6.437,0,0,1,5.159,6.43a1.351,1.351,0,0,1,.895-1.64,1.388,1.388,0,0,0,.522-2.311L4.488.391a1.489,1.489,0,0,0-2.013,0L1.059,1.808C-.358,3.3,1.208,7.25,4.711,10.753s7.455,5.144,8.946,3.653l1.416-1.416A1.489,1.489,0,0,0,15.073,10.977Z" transform="translate(-0.539 0)" fill="#acacac"/>
    </g>
  </g>
</svg>
