<svg xmlns="http://www.w3.org/2000/svg" xmlns:xlink="http://www.w3.org/1999/xlink" width="321.178" height="315.324" viewBox="0 0 321.178 315.324">
  <defs>
    <filter id="Rectangle_10" x="217.776" y="57.644" width="81" height="59" filterUnits="userSpaceOnUse">
      <feOffset dy="3" input="SourceAlpha"/>
      <feGaussianBlur stdDeviation="3" result="blur"/>
      <feFlood flood-opacity="0.098"/>
      <feComposite operator="in" in2="blur"/>
      <feComposite in="SourceGraphic"/>
    </filter>
    <filter id="Rectangle_11" x="30.776" y="205.644" width="81" height="59" filterUnits="userSpaceOnUse">
      <feOffset dy="3" input="SourceAlpha"/>
      <feGaussianBlur stdDeviation="3" result="blur-2"/>
      <feFlood flood-opacity="0.098"/>
      <feComposite operator="in" in2="blur-2"/>
      <feComposite in="SourceGraphic"/>
    </filter>
  </defs>
  <g id="Group_51" data-name="Group 51" transform="translate(-386.224 -1908.356)">
    <g id="Group_14" data-name="Group 14" transform="translate(387.004 2078.536) rotate(-48)">
      <g id="Group_4" data-name="Group 4" transform="translate(0 0)">
        <path id="Path_4016" data-name="Path 4016" d="M274.075,10.5a111.109,111.109,0,1,1-37.262,215.776L274.1,121.609Z" transform="translate(-155.968 -9.098)" fill="#0071bb" stroke="#fff" stroke-linejoin="round" stroke-width="1"/>
        <path id="Path_4017" data-name="Path 4017" d="M205.216,226.238A111.109,111.109,0,0,1,242.45,10.5l.154,111.109Z" transform="translate(-131.485 -10.5)" fill="#dbdbdb" stroke="#fff" stroke-linejoin="round" stroke-width="1"/>
      </g>
    </g>
    <g transform="matrix(1, 0, 0, 1, 386.22, 1908.36)" filter="url(#Rectangle_10)">
      <rect id="Rectangle_10-2" data-name="Rectangle 10" width="63" height="41" rx="5" transform="translate(226.78 63.64)" fill="#fff"/>
    </g>
    <g transform="matrix(1, 0, 0, 1, 386.22, 1908.36)" filter="url(#Rectangle_11)">
      <rect id="Rectangle_11-2" data-name="Rectangle 11" width="63" height="41" rx="5" transform="translate(39.78 211.64)" fill="#fff"/>
    </g>
    <path id="Path_4068" data-name="Path 4068" d="M10.9,0Q9.56-2.38,8-4.7A47.765,47.765,0,0,0,4.68-9.08V0H1.6V-13.86H4.14q.66.66,1.46,1.62t1.63,2.05Q8.06-9.1,8.88-7.93t1.54,2.25v-8.18h3.1V0Zm8.24-6.94a6.3,6.3,0,0,0,.25,1.84,4.2,4.2,0,0,0,.72,1.41,3.187,3.187,0,0,0,1.15.91,3.624,3.624,0,0,0,1.56.32,3.641,3.641,0,0,0,1.55-.32,3.165,3.165,0,0,0,1.16-.91,4.2,4.2,0,0,0,.72-1.41,6.3,6.3,0,0,0,.25-1.84,6.4,6.4,0,0,0-.25-1.85,4.192,4.192,0,0,0-.72-1.42,3.165,3.165,0,0,0-1.16-.91,3.641,3.641,0,0,0-1.55-.32,3.53,3.53,0,0,0-1.56.33,3.287,3.287,0,0,0-1.15.92,4.192,4.192,0,0,0-.72,1.42A6.326,6.326,0,0,0,19.14-6.94Zm10.58,0a8.529,8.529,0,0,1-.53,3.13,6.436,6.436,0,0,1-1.45,2.26A5.953,5.953,0,0,1,25.55-.18a7.956,7.956,0,0,1-2.73.46,7.753,7.753,0,0,1-2.68-.46,6.162,6.162,0,0,1-2.2-1.37,6.406,6.406,0,0,1-1.48-2.26,8.388,8.388,0,0,1-.54-3.13,8.121,8.121,0,0,1,.56-3.13,6.669,6.669,0,0,1,1.51-2.27,6.21,6.21,0,0,1,2.2-1.38,7.554,7.554,0,0,1,2.63-.46,7.753,7.753,0,0,1,2.68.46,6.1,6.1,0,0,1,2.2,1.38,6.509,6.509,0,0,1,1.48,2.27A8.388,8.388,0,0,1,29.72-6.94Z" transform="translate(629 2000)" fill="#0071bb"/>
    <path id="Path_4067" data-name="Path 4067" d="M6.68-8.16Q7.52-9.58,8.28-11t1.4-2.86h3.44q-1.14,2.24-2.36,4.34T8.18-5.3V0H5.06V-5.26Q3.7-7.38,2.47-9.5T.1-13.86H3.72Q4.36-12.42,5.1-11T6.68-8.16ZM14.62,0V-13.86h9.36v2.62H17.74v2.72h5.54v2.56H17.74v3.34h6.7V0Zm15.7-2.38a4.5,4.5,0,0,0,1.09-.11,2.01,2.01,0,0,0,.69-.3,1,1,0,0,0,.36-.45,1.6,1.6,0,0,0,.1-.58,1.34,1.34,0,0,0-.64-1.13,9.145,9.145,0,0,0-2.2-.97q-.68-.24-1.36-.55a5.013,5.013,0,0,1-1.22-.78,3.731,3.731,0,0,1-.88-1.14,3.571,3.571,0,0,1-.34-1.63,4.036,4.036,0,0,1,.36-1.73,3.693,3.693,0,0,1,1.02-1.31,4.668,4.668,0,0,1,1.6-.83,7.182,7.182,0,0,1,2.12-.29,8.633,8.633,0,0,1,2.42.3,8.648,8.648,0,0,1,1.68.66l-.9,2.46a8.524,8.524,0,0,0-1.29-.53,5.586,5.586,0,0,0-1.71-.23,3.137,3.137,0,0,0-1.61.31,1.046,1.046,0,0,0-.49.95,1.1,1.1,0,0,0,.18.64,1.75,1.75,0,0,0,.51.47,4.487,4.487,0,0,0,.76.38q.43.17.95.35,1.08.4,1.88.79a5.021,5.021,0,0,1,1.33.91,3.3,3.3,0,0,1,.79,1.22,4.9,4.9,0,0,1,.26,1.7A3.61,3.61,0,0,1,34.42-.79,6.563,6.563,0,0,1,30.32.28,11.359,11.359,0,0,1,28.66.17,10.714,10.714,0,0,1,27.35-.1a7.514,7.514,0,0,1-.98-.34,7.441,7.441,0,0,1-.69-.34l.88-2.48a7.846,7.846,0,0,0,1.53.61A7.936,7.936,0,0,0,30.32-2.38Z" transform="translate(439 2148)" fill="#dbdbdb"/>
    <path id="Path_4069" data-name="Path 4069" d="M5.48-6.52a5.965,5.965,0,0,0-.94.08,2.77,2.77,0,0,0-.78.22q0,.08-.01.24t-.01.28a8.812,8.812,0,0,0,.1,1.36,3.81,3.81,0,0,0,.34,1.12,1.915,1.915,0,0,0,.64.75,1.748,1.748,0,0,0,1,.27,1.624,1.624,0,0,0,.85-.21,1.924,1.924,0,0,0,.58-.53,2.255,2.255,0,0,0,.34-.71A2.76,2.76,0,0,0,7.7-4.4a2.225,2.225,0,0,0-.51-1.57A2.25,2.25,0,0,0,5.48-6.52Zm.38-2.32a6.173,6.173,0,0,1,2.21.35,4.064,4.064,0,0,1,1.49.95,3.58,3.58,0,0,1,.84,1.4,5.467,5.467,0,0,1,.26,1.7,5.009,5.009,0,0,1-.29,1.64,4.582,4.582,0,0,1-.88,1.52A4.61,4.61,0,0,1,7.99-.16,4.892,4.892,0,0,1,5.84.28,4.637,4.637,0,0,1,2.04-1.3,6.668,6.668,0,0,1,.74-5.66,9.424,9.424,0,0,1,1.36-9.2a6.978,6.978,0,0,1,1.77-2.59,7.725,7.725,0,0,1,2.78-1.6,11.808,11.808,0,0,1,3.67-.57q.04.62.08,1.21t.08,1.23a11.372,11.372,0,0,0-1.91.19,6.331,6.331,0,0,0-1.62.53,4.433,4.433,0,0,0-1.27.93A3.979,3.979,0,0,0,4.1-8.48,3.7,3.7,0,0,1,5-8.76,5.036,5.036,0,0,1,5.86-8.84Zm6.7-2.14q.58-.24,1.21-.55T15-12.21q.6-.37,1.15-.78a7.894,7.894,0,0,0,.99-.87h2.08V0H16.24V-9.98a9.072,9.072,0,0,1-1.34.73q-.74.33-1.44.57Zm17.54.68a4,4,0,0,1-.96,2.88,3.409,3.409,0,0,1-2.58,1,3.409,3.409,0,0,1-2.58-1,4,4,0,0,1-.96-2.88,4,4,0,0,1,.96-2.88,3.409,3.409,0,0,1,2.58-1,3.409,3.409,0,0,1,2.58,1A4,4,0,0,1,30.1-10.3Zm-2.26,0a2.414,2.414,0,0,0-.36-1.48,1.119,1.119,0,0,0-.92-.46,1.111,1.111,0,0,0-.93.46,2.467,2.467,0,0,0-.35,1.48,2.516,2.516,0,0,0,.35,1.49,1.1,1.1,0,0,0,.93.47,1.111,1.111,0,0,0,.92-.47A2.462,2.462,0,0,0,27.84-10.3ZM34-13.86h2.78L28.96,0H26.18Zm5.98,10.3a4,4,0,0,1-.96,2.88,3.409,3.409,0,0,1-2.58,1,3.409,3.409,0,0,1-2.58-1,4,4,0,0,1-.96-2.88,4,4,0,0,1,.96-2.88,3.409,3.409,0,0,1,2.58-1,3.409,3.409,0,0,1,2.58,1A4,4,0,0,1,39.98-3.56Zm-2.26,0a2.414,2.414,0,0,0-.36-1.48,1.119,1.119,0,0,0-.92-.46,1.111,1.111,0,0,0-.93.46,2.467,2.467,0,0,0-.35,1.48,2.516,2.516,0,0,0,.35,1.49,1.1,1.1,0,0,0,.93.47,1.111,1.111,0,0,0,.92-.47A2.462,2.462,0,0,0,37.72-3.56Z" transform="translate(558 2000)" fill="#fff"/>
  </g>
</svg>
