<svg xmlns="http://www.w3.org/2000/svg" width="209.531" height="47.945" viewBox="0 0 209.531 47.945">
  <g id="Group_63" data-name="Group 63" transform="translate(-159.855 -390.628)">
    <path id="Path_4049" data-name="Path 4049" d="M243.191,407.4a3.385,3.385,0,0,1,1.619.488,9.7,9.7,0,0,1,1.93,1.493L249,405.127a9.837,9.837,0,0,0-2.846-1.861,8.038,8.038,0,0,0-3.14-.63,6.745,6.745,0,0,0-5.064,2.03,7.191,7.191,0,0,0-1.967,5.222,5.028,5.028,0,0,0,.859,2.971,9.841,9.841,0,0,0,3.164,2.545l.372.206q2.4,1.37,2.4,2.547a1.791,1.791,0,0,1-.591,1.4,2.275,2.275,0,0,1-1.579.53,4.5,4.5,0,0,1-2.318-.663,9.573,9.573,0,0,1-2.348-2.12l-2.691,4.316a9.563,9.563,0,0,0,3.081,2.734,7.645,7.645,0,0,0,3.67.921,8.25,8.25,0,0,0,5.928-2.07,7.272,7.272,0,0,0,2.176-5.531,6.141,6.141,0,0,0-.8-3.263,8.4,8.4,0,0,0-2.855-2.556q-.387-.249-1.1-.649-2.036-1.135-2.037-2.051a1.648,1.648,0,0,1,.54-1.246A1.88,1.88,0,0,1,243.191,407.4Z" transform="translate(-18.01 -2.947)" fill="#fff" fill-rule="evenodd"/>
    <path id="Path_4050" data-name="Path 4050" d="M269.808,408.275l.706-4.952H259.221l-3.092,21.553h11.293l.678-4.811h-6.052l.516-3.584h5.654l.647-4.669H263.24l.5-3.537Z" transform="translate(-23.625 -3.115)" fill="#fff" fill-rule="evenodd"/>
    <path id="Path_4051" data-name="Path 4051" d="M293.254,403.323l-3.507,8.465q-.457,1.119-.7,1.863t-.39,1.391q-.1-.912-.2-1.759t-.229-1.612l-1.312-8.348h-5.822l-5.96,21.554H280.2l2.711-10.277q.178-.736.346-1.589t.317-1.811c.06.54.128,1.077.207,1.612s.167,1.068.265,1.6l1.828,10.467h3.184l4.466-10.482c.048-.108.118-.269.206-.486a20.932,20.932,0,0,0,1-2.724q-.045.855-.074,1.7t-.029,1.714l.059,10.277h4.834l-.472-21.554Z" transform="translate(-28.289 -3.115)" fill="#fff" fill-rule="evenodd"/>
    <path id="Path_4052" data-name="Path 4052" d="M323.38,402.7a11.146,11.146,0,0,0-4.888,1.081,10.6,10.6,0,0,0-3.827,3.11,12.147,12.147,0,0,0-2.016,3.8,14.567,14.567,0,0,0-.677,4.509,11.253,11.253,0,0,0,.794,4.221,9.46,9.46,0,0,0,2.194,3.338,8.866,8.866,0,0,0,3.061,1.9,11.684,11.684,0,0,0,8.685-.441,10.853,10.853,0,0,0,3.827-3.147,12.345,12.345,0,0,0,2.016-3.8,14.388,14.388,0,0,0,.692-4.509,9.971,9.971,0,0,0-2.723-7.265A9.523,9.523,0,0,0,323.38,402.7Zm2.782,15.351a5.086,5.086,0,0,1-4.021,1.958,4.357,4.357,0,0,1-3.452-1.481,5.807,5.807,0,0,1-1.293-3.96,6.946,6.946,0,0,1,1.626-4.693,5.1,5.1,0,0,1,4.022-1.893,4.417,4.417,0,0,1,3.429,1.489,5.459,5.459,0,0,1,1.346,3.806A7.142,7.142,0,0,1,326.162,418.049Z" transform="translate(-37.328 -2.962)" fill="#fff" fill-rule="evenodd"/>
    <path id="Path_4053" data-name="Path 4053" d="M353.02,411.854q-.387-.249-1.1-.649-2.036-1.135-2.036-2.051a1.645,1.645,0,0,1,.54-1.246,1.877,1.877,0,0,1,1.338-.509,3.389,3.389,0,0,1,1.619.488,9.719,9.719,0,0,1,1.929,1.493l2.262-4.253a9.833,9.833,0,0,0-2.845-1.861,8.04,8.04,0,0,0-3.14-.63,6.743,6.743,0,0,0-5.064,2.03,7.188,7.188,0,0,0-1.968,5.222,5.028,5.028,0,0,0,.859,2.971,9.85,9.85,0,0,0,3.164,2.545l.373.206q2.4,1.37,2.4,2.547a1.788,1.788,0,0,1-.591,1.4,2.274,2.274,0,0,1-1.579.53,4.5,4.5,0,0,1-2.318-.663,9.571,9.571,0,0,1-2.347-2.12l-2.692,4.316a9.571,9.571,0,0,0,3.081,2.734,7.645,7.645,0,0,0,3.671.921,8.249,8.249,0,0,0,5.927-2.07,7.273,7.273,0,0,0,2.177-5.531,6.142,6.142,0,0,0-.8-3.263A8.4,8.4,0,0,0,353.02,411.854Z" transform="translate(-44.652 -2.947)" fill="#fff" fill-rule="evenodd"/>
    <path id="Path_4054" data-name="Path 4054" d="M193.858,402.9l-.724-.3-.439.5-3.759,4.306.571.331c3,1.739,4.393,4.039,3.718,6.154a6.129,6.129,0,0,1-3.639,3.43,20.22,20.22,0,0,1-10.835,1.056c-3.738-.587-6.967-2-8.864-3.881l-.256-.254h-9.776l.422.806c2.567,4.906,11.007,8.33,20.524,8.33,11.758,0,21.324-5.13,21.324-11.437C202.125,408.375,199.112,405.078,193.858,402.9Z" transform="translate(0 -2.937)" fill="#fff" fill-rule="evenodd"/>
    <path id="Path_4055" data-name="Path 4055" d="M193.186,390.628c-11.76,0-21.325,5.131-21.325,11.436,0,3.565,3.012,6.862,8.265,9.043l.725.3,4.2-4.809-.574-.332c-3-1.737-4.39-4.037-3.717-6.153a6.125,6.125,0,0,1,3.638-3.43,20.224,20.224,0,0,1,10.836-1.054c3.735.586,6.967,2,8.863,3.879l.257.253h9.777l-.423-.805C211.143,394.053,202.7,390.628,193.186,390.628Z" transform="translate(-2.946)" fill="#fff" fill-rule="evenodd"/>
    <rect id="Rectangle_59" data-name="Rectangle 59" width="151.17" height="0.377" transform="translate(217.101 424.719)" fill="#fff"/>
    <g id="Group_62" data-name="Group 62" transform="translate(303.519 427.706)">
      <path id="Path_4056" data-name="Path 4056" d="M413.144,440.6a1.315,1.315,0,0,0-.345.915,1.35,1.35,0,0,0,.345.933,1.08,1.08,0,0,0,.837.386,1.1,1.1,0,0,0,.847-.383,1.34,1.34,0,0,0,.349-.937,1.313,1.313,0,0,0-.341-.929,1.117,1.117,0,0,0-.854-.369A1.084,1.084,0,0,0,413.144,440.6Z" transform="translate(-365.589 -439.874)" fill="#fff" fill-rule="evenodd"/>
      <g id="Group_61" data-name="Group 61">
        <path id="Path_4057" data-name="Path 4057" d="M356.25,450.635l-1.184-1.326a3.268,3.268,0,0,1-.78.605,1.661,1.661,0,0,1-.772.187,1.136,1.136,0,0,1-.893-.342,1.466,1.466,0,0,1-.3-1V448.6h4.7q.007-.048.02-.163c.023-.251.035-.424.035-.519a3.707,3.707,0,0,0-.884-2.587,3,3,0,0,0-2.332-.976,3.367,3.367,0,0,0-2.611,1.108,4.106,4.106,0,0,0-1.007,2.877,3.532,3.532,0,0,0,.846,2.518,3.109,3.109,0,0,0,2.376.9,4.148,4.148,0,0,0,1.563-.281A3.464,3.464,0,0,0,356.25,450.635Zm-3.232-4.33a1.214,1.214,0,0,1,.824-.321,1.076,1.076,0,0,1,.817.328,1.37,1.37,0,0,1,.346.889h-2.539A1.965,1.965,0,0,1,353.018,446.305Z" transform="translate(-350.237 -440.891)" fill="#fff" fill-rule="evenodd"/>
        <path id="Path_4058" data-name="Path 4058" d="M365.761,449.455l-.13.892h2.083l1.518-10.583h-2.173l-.526,3.632q-.028.232-.048.454c-.014.148-.02.289-.02.426v.2a3.121,3.121,0,0,0-.962-.91,2.283,2.283,0,0,0-1.145-.29,2.876,2.876,0,0,0-2.341,1.176,4.613,4.613,0,0,0-.934,2.964,3.7,3.7,0,0,0,.693,2.32,2.142,2.142,0,0,0,1.77.9,2.489,2.489,0,0,0,1.194-.3A3.4,3.4,0,0,0,365.761,449.455Zm-2.036-1.281a1.53,1.53,0,0,1-.364-1.068,2.182,2.182,0,0,1,.436-1.4,1.357,1.357,0,0,1,1.112-.552,1.24,1.24,0,0,1,.955.4,1.485,1.485,0,0,1,.368,1.044,2.231,2.231,0,0,1-.44,1.414,1.346,1.346,0,0,1-1.1.565A1.234,1.234,0,0,1,363.725,448.174Z" transform="translate(-352.898 -439.764)" fill="#fff" fill-rule="evenodd"/>
        <path id="Path_4059" data-name="Path 4059" d="M379.611,447.778l.444-3.121h-2.206l-.389,2.725c-.01.045-.019.112-.028.2q-.334,2.385-1.29,2.383a.766.766,0,0,1-.626-.259,1.149,1.149,0,0,1-.215-.751q0-.117.045-.5c.029-.252.067-.568.112-.946l.41-2.855h-2.194l-.389,2.643q-.13.859-.174,1.272a6.472,6.472,0,0,0-.045.686,2.34,2.34,0,0,0,.8,1.869,3.236,3.236,0,0,0,2.186.689,4.111,4.111,0,0,0,1.435-.235,2.831,2.831,0,0,0,1.079-.7,5.768,5.768,0,0,0,1.026-2.96Z" transform="translate(-355.839 -440.965)" fill="#fff" fill-rule="evenodd"/>
        <path id="Path_4060" data-name="Path 4060" d="M387.754,446.287a1.483,1.483,0,0,1,.732.2,2.633,2.633,0,0,1,.69.6l.3-2.1a2.819,2.819,0,0,0-.874-.494,3,3,0,0,0-1-.167,3.442,3.442,0,0,0-2.668,1.11,4.107,4.107,0,0,0-1.017,2.891,3.622,3.622,0,0,0,.823,2.468,2.709,2.709,0,0,0,2.146.946,4.229,4.229,0,0,0,.808-.082,5.266,5.266,0,0,0,.856-.252l.334-2.27a2.65,2.65,0,0,1-.684.435,1.813,1.813,0,0,1-.717.146,1.143,1.143,0,0,1-.919-.4,1.624,1.624,0,0,1-.34-1.086,2.161,2.161,0,0,1,.438-1.379A1.339,1.339,0,0,1,387.754,446.287Z" transform="translate(-358.502 -440.882)" fill="#fff" fill-rule="evenodd"/>
        <path id="Path_4061" data-name="Path 4061" d="M396.714,451.431a3.257,3.257,0,0,0,1.012-.877l-.109.92h2.063l1-6.891h-2.1l-.143.993a2.838,2.838,0,0,0-.927-.921,2.3,2.3,0,0,0-1.173-.3,2.88,2.88,0,0,0-2.342,1.183,4.624,4.624,0,0,0-.94,2.971,3.672,3.672,0,0,0,.694,2.323,2.147,2.147,0,0,0,1.773.895A2.486,2.486,0,0,0,396.714,451.431Zm-.992-4.553a1.354,1.354,0,0,1,1.108-.554,1.243,1.243,0,0,1,.958.4,1.48,1.48,0,0,1,.369,1.044,2.228,2.228,0,0,1-.441,1.414,1.342,1.342,0,0,1-1.1.564,1.242,1.242,0,0,1-.967-.4,1.531,1.531,0,0,1-.366-1.069A2.187,2.187,0,0,1,395.723,446.878Z" transform="translate(-360.743 -440.891)" fill="#fff" fill-rule="evenodd"/>
        <path id="Path_4062" data-name="Path 4062" d="M404.94,450.895h2.2l.73-5.136H409l.253-1.755h-1.119L408.42,442h-2.2l-.28,2.009h-1.044l-.252,1.755h1.037Z" transform="translate(-363.587 -440.311)" fill="#fff" fill-rule="evenodd"/>
        <path id="Path_4063" data-name="Path 4063" d="M414.492,444.657h-2.228l-.983,6.891h2.214Z" transform="translate(-365.216 -440.965)" fill="#fff" fill-rule="evenodd"/>
        <path id="Path_4064" data-name="Path 4064" d="M424.228,447.775a3.459,3.459,0,0,0-.9-2.5,3.173,3.173,0,0,0-2.4-.936,3.477,3.477,0,0,0-2.675,1.127,4.079,4.079,0,0,0-1.042,2.883,3.44,3.44,0,0,0,.885,2.474,3.106,3.106,0,0,0,2.361.929,3.564,3.564,0,0,0,2.715-1.121A4,4,0,0,0,424.228,447.775Zm-2.554,1.417a1.374,1.374,0,0,1-1.136.58,1.107,1.107,0,0,1-.877-.377,1.487,1.487,0,0,1-.329-1.014,2.357,2.357,0,0,1,.452-1.462,1.334,1.334,0,0,1,1.1-.6,1.153,1.153,0,0,1,.907.373,1.476,1.476,0,0,1,.333,1.018A2.36,2.36,0,0,1,421.674,449.193Z" transform="translate(-366.672 -440.887)" fill="#fff" fill-rule="evenodd"/>
        <path id="Path_4065" data-name="Path 4065" d="M434.664,444.935a1.964,1.964,0,0,0-1.514-.578,2.09,2.09,0,0,0-1.11.309,3.847,3.847,0,0,0-1.029.993l.157-1.076h-2.123l-.989,6.891h2.184l.444-3.218a3.439,3.439,0,0,1,.467-1.461,1.046,1.046,0,0,1,.9-.458.827.827,0,0,1,.638.233.966.966,0,0,1,.216.682c0,.073-.005.159-.014.26s-.023.2-.042.307l-.518,3.655h2.216l.527-3.62c0-.032.009-.073.014-.123a10.258,10.258,0,0,0,.109-1.182A2.283,2.283,0,0,0,434.664,444.935Z" transform="translate(-369.333 -440.891)" fill="#fff" fill-rule="evenodd"/>
      </g>
    </g>
  </g>
</svg>
